<svg width="16" height="16" viewBox="0 0 16 16" fill="none" xmlns="http://www.w3.org/2000/svg">
    <rect width="16" height="16" fill="none" />
    <path
        d="M-3665 -1696C-3665 -1697.1 -3664.1 -1698 -3663 -1698H25443C25444.1 -1698 25445 -1697.1 25445 -1696V11358C25445 11359.1 25444.1 11360 25443 11360H-3663C-3664.1 11360 -3665 11359.1 -3665 11358V-1696Z"
        fill="none" />
    <path
        d="M-3663 -1697H25443V-1699H-3663V-1697ZM25444 -1696V11358H25446V-1696H25444ZM25443 11359H-3663V11361H25443V11359ZM-3664 11358V-1696H-3666V11358H-3664ZM-3663 11359C-3663.55 11359 -3664 11358.6 -3664 11358H-3666C-3666 11359.7 -3664.66 11361 -3663 11361V11359ZM25444 11358C25444 11358.6 25443.6 11359 25443 11359V11361C25444.7 11361 25446 11359.7 25446 11358H25444ZM25443 -1697C25443.6 -1697 25444 -1696.55 25444 -1696H25446C25446 -1697.66 25444.7 -1699 25443 -1699V-1697ZM-3663 -1699C-3664.66 -1699 -3666 -1697.66 -3666 -1696H-3664C-3664 -1696.55 -3663.55 -1697 -3663 -1697V-1699Z"
        fill="white" fill-opacity="0.1" />
    <g clip-path="url(#clip0_4403_25626)">
        <mask id="path-3-inside-1_4403_25626" fill="white">
            <path
                d="M13.9374 12.0625H12.6874V10.8125C12.6874 10.7437 12.6312 10.6875 12.5624 10.6875H11.8124C11.7437 10.6875 11.6874 10.7437 11.6874 10.8125V12.0625H10.4374C10.3687 12.0625 10.3124 12.1187 10.3124 12.1875V12.9375C10.3124 13.0063 10.3687 13.0625 10.4374 13.0625H11.6874V14.3125C11.6874 14.3813 11.7437 14.4375 11.8124 14.4375H12.5624C12.6312 14.4375 12.6874 14.3813 12.6874 14.3125V13.0625H13.9374C14.0062 13.0625 14.0624 13.0063 14.0624 12.9375V12.1875C14.0624 12.1187 14.0062 12.0625 13.9374 12.0625ZM5.83588 7.7875C5.82182 7.65156 5.814 7.51406 5.814 7.375C5.814 7.12656 5.83744 6.88438 5.88119 6.64844C5.89213 6.59219 5.86244 6.53438 5.81088 6.51094C5.59838 6.41563 5.40307 6.28438 5.23432 6.11875C5.03547 5.92595 4.879 5.69382 4.77489 5.43716C4.67077 5.18051 4.6213 4.90497 4.62963 4.62813C4.64369 4.12656 4.84525 3.65 5.19682 3.29063C5.58275 2.89531 6.1015 2.67969 6.65307 2.68594C7.1515 2.69063 7.63275 2.88281 7.99682 3.22344C8.12025 3.33906 8.2265 3.46719 8.31557 3.60469C8.34682 3.65313 8.40775 3.67344 8.46088 3.65469C8.73588 3.55938 9.0265 3.49219 9.32494 3.46094C9.41244 3.45156 9.46244 3.35781 9.42338 3.27969C8.91557 2.275 7.87807 1.58125 6.67807 1.5625C4.94682 1.53594 3.50307 2.95625 3.50307 4.6875C3.50307 5.66875 3.95463 6.54375 4.66244 7.11719C4.16557 7.34688 3.70775 7.66406 3.31088 8.06094C2.45463 8.91563 1.97025 10.0438 1.939 11.2484C1.93859 11.2651 1.94151 11.2817 1.94761 11.2972C1.9537 11.3128 1.96284 11.3269 1.97449 11.3389C1.98614 11.3508 2.00006 11.3603 2.01544 11.3668C2.03081 11.3732 2.04732 11.3766 2.064 11.3766H2.94057C3.00775 11.3766 3.064 11.3234 3.06557 11.2563C3.09525 10.35 3.46244 9.50156 4.10775 8.85781C4.56713 8.39844 5.12963 8.07969 5.74369 7.925C5.80307 7.90781 5.84369 7.85 5.83588 7.7875ZM12.8749 7.375C12.8749 5.66563 11.5015 4.27656 9.79838 4.25C8.06713 4.22344 6.62494 5.64375 6.62494 7.375C6.62494 8.35625 7.07807 9.23125 7.78432 9.80469C7.2823 10.0374 6.8253 10.3569 6.43432 10.7484C5.57807 11.6031 5.09369 12.7312 5.06244 13.9344C5.06202 13.9511 5.06495 13.9676 5.07104 13.9832C5.07714 13.9987 5.08628 14.0129 5.09793 14.0248C5.10958 14.0367 5.1235 14.0462 5.13887 14.0527C5.15425 14.0592 5.17076 14.0625 5.18744 14.0625H6.06244C6.12963 14.0625 6.18588 14.0094 6.18744 13.9422C6.21713 13.0359 6.58432 12.1875 7.22963 11.5437C7.90307 10.8703 8.79682 10.5 9.74994 10.5C11.4749 10.5 12.8749 9.10156 12.8749 7.375ZM11.164 8.78906C10.7859 9.16719 10.2843 9.375 9.74994 9.375C9.21557 9.375 8.714 9.16719 8.33588 8.78906C8.14719 8.60136 7.9981 8.37768 7.89745 8.13129C7.7968 7.88491 7.74664 7.62082 7.74994 7.35469C7.75463 6.84219 7.95932 6.34688 8.31713 5.97969C8.69213 5.59531 9.19369 5.38125 9.72963 5.375C10.2593 5.37031 10.7734 5.57656 11.1515 5.94688C11.539 6.32656 11.7515 6.83438 11.7515 7.375C11.7499 7.90938 11.5421 8.41094 11.164 8.78906Z" />
        </mask>
        <path
            d="M13.9374 12.0625H12.6874V10.8125C12.6874 10.7437 12.6312 10.6875 12.5624 10.6875H11.8124C11.7437 10.6875 11.6874 10.7437 11.6874 10.8125V12.0625H10.4374C10.3687 12.0625 10.3124 12.1187 10.3124 12.1875V12.9375C10.3124 13.0063 10.3687 13.0625 10.4374 13.0625H11.6874V14.3125C11.6874 14.3813 11.7437 14.4375 11.8124 14.4375H12.5624C12.6312 14.4375 12.6874 14.3813 12.6874 14.3125V13.0625H13.9374C14.0062 13.0625 14.0624 13.0063 14.0624 12.9375V12.1875C14.0624 12.1187 14.0062 12.0625 13.9374 12.0625ZM5.83588 7.7875C5.82182 7.65156 5.814 7.51406 5.814 7.375C5.814 7.12656 5.83744 6.88438 5.88119 6.64844C5.89213 6.59219 5.86244 6.53438 5.81088 6.51094C5.59838 6.41563 5.40307 6.28438 5.23432 6.11875C5.03547 5.92595 4.879 5.69382 4.77489 5.43716C4.67077 5.18051 4.6213 4.90497 4.62963 4.62813C4.64369 4.12656 4.84525 3.65 5.19682 3.29063C5.58275 2.89531 6.1015 2.67969 6.65307 2.68594C7.1515 2.69063 7.63275 2.88281 7.99682 3.22344C8.12025 3.33906 8.2265 3.46719 8.31557 3.60469C8.34682 3.65313 8.40775 3.67344 8.46088 3.65469C8.73588 3.55938 9.0265 3.49219 9.32494 3.46094C9.41244 3.45156 9.46244 3.35781 9.42338 3.27969C8.91557 2.275 7.87807 1.58125 6.67807 1.5625C4.94682 1.53594 3.50307 2.95625 3.50307 4.6875C3.50307 5.66875 3.95463 6.54375 4.66244 7.11719C4.16557 7.34688 3.70775 7.66406 3.31088 8.06094C2.45463 8.91563 1.97025 10.0438 1.939 11.2484C1.93859 11.2651 1.94151 11.2817 1.94761 11.2972C1.9537 11.3128 1.96284 11.3269 1.97449 11.3389C1.98614 11.3508 2.00006 11.3603 2.01544 11.3668C2.03081 11.3732 2.04732 11.3766 2.064 11.3766H2.94057C3.00775 11.3766 3.064 11.3234 3.06557 11.2563C3.09525 10.35 3.46244 9.50156 4.10775 8.85781C4.56713 8.39844 5.12963 8.07969 5.74369 7.925C5.80307 7.90781 5.84369 7.85 5.83588 7.7875ZM12.8749 7.375C12.8749 5.66563 11.5015 4.27656 9.79838 4.25C8.06713 4.22344 6.62494 5.64375 6.62494 7.375C6.62494 8.35625 7.07807 9.23125 7.78432 9.80469C7.2823 10.0374 6.8253 10.3569 6.43432 10.7484C5.57807 11.6031 5.09369 12.7312 5.06244 13.9344C5.06202 13.9511 5.06495 13.9676 5.07104 13.9832C5.07714 13.9987 5.08628 14.0129 5.09793 14.0248C5.10958 14.0367 5.1235 14.0462 5.13887 14.0527C5.15425 14.0592 5.17076 14.0625 5.18744 14.0625H6.06244C6.12963 14.0625 6.18588 14.0094 6.18744 13.9422C6.21713 13.0359 6.58432 12.1875 7.22963 11.5437C7.90307 10.8703 8.79682 10.5 9.74994 10.5C11.4749 10.5 12.8749 9.10156 12.8749 7.375ZM11.164 8.78906C10.7859 9.16719 10.2843 9.375 9.74994 9.375C9.21557 9.375 8.714 9.16719 8.33588 8.78906C8.14719 8.60136 7.9981 8.37768 7.89745 8.13129C7.7968 7.88491 7.74664 7.62082 7.74994 7.35469C7.75463 6.84219 7.95932 6.34688 8.31713 5.97969C8.69213 5.59531 9.19369 5.38125 9.72963 5.375C10.2593 5.37031 10.7734 5.57656 11.1515 5.94688C11.539 6.32656 11.7515 6.83438 11.7515 7.375C11.7499 7.90938 11.5421 8.41094 11.164 8.78906Z"
            fill="#ED1C24" stroke="#ED1C24" stroke-width="2" mask="url(#path-3-inside-1_4403_25626)" />
    </g>
    <defs>
        <clipPath id="clip0_4403_25626">
            <rect width="375" height="1497" fill="none" transform="translate(-335 -324)" />
        </clipPath>
    </defs>
</svg>