<svg width="27" height="26" viewBox="0 0 27 26" fill="none" xmlns="http://www.w3.org/2000/svg">
<path d="M14.8201 19C14.7029 19.2021 14.5346 19.3698 14.3322 19.4864C14.1298 19.603 13.9003 19.6643 13.6667 19.6643C13.4332 19.6643 13.2037 19.603 13.0013 19.4864C12.7989 19.3698 12.6306 19.2021 12.5134 19M17.6667 10.3334C17.6667 9.27251 17.2453 8.25509 16.4952 7.50495C15.745 6.7548 14.7276 6.33337 13.6667 6.33337C12.6059 6.33337 11.5885 6.7548 10.8383 7.50495C10.0882 8.25509 9.66675 9.27251 9.66675 10.3334C9.66675 15 7.66675 16.3334 7.66675 16.3334H19.6667C19.6667 16.3334 17.6667 15 17.6667 10.3334Z" stroke="#0F0F0F" stroke-linecap="round" stroke-linejoin="round"/>
</svg>
