<svg xmlns="http://www.w3.org/2000/svg" width="24" height="24" viewBox="0 0 24 24" fill="none">
  <path d="M7.91541 16.084H6.10028C5.61888 16.084 5.1572 15.8927 4.81679 15.5523C4.47639 15.2119 4.28516 14.7502 4.28516 14.2688V6.10077C4.28516 5.61937 4.47639 5.15768 4.81679 4.81728C5.1572 4.47688 5.61888 4.28564 6.10028 4.28564H14.2683C14.7498 4.28564 15.2114 4.47688 15.5518 4.81728C15.8922 5.15768 16.0835 5.61937 16.0835 6.10077V7.00833M9.73053 7.9159H17.8986C18.9011 7.9159 19.7137 8.72856 19.7137 9.73102V17.8991C19.7137 18.9016 18.9011 19.7142 17.8986 19.7142H9.73053C8.72807 19.7142 7.91541 18.9016 7.91541 17.8991V9.73102C7.91541 8.72856 8.72807 7.9159 9.73053 7.9159Z" stroke="#0F172A" stroke-width="1.5" stroke-linecap="round" stroke-linejoin="round"/>
</svg>