<svg xmlns="http://www.w3.org/2000/svg" width="25" height="25" viewBox="0 0 25 25" fill="none">
  <path d="M8.16638 16.584H6.35126C5.86986 16.584 5.40817 16.3927 5.06777 16.0523C4.72737 15.7119 4.53613 15.2502 4.53613 14.7688V6.60077C4.53613 6.11937 4.72737 5.65768 5.06777 5.31728C5.40817 4.97688 5.86986 4.78564 6.35126 4.78564H14.5193C15.0007 4.78564 15.4624 4.97688 15.8028 5.31728C16.1432 5.65768 16.3345 6.11937 16.3345 6.60077V7.50833M9.98151 8.4159H18.1496C19.152 8.4159 19.9647 9.22856 19.9647 10.231V18.3991C19.9647 19.4016 19.152 20.2142 18.1496 20.2142H9.98151C8.97904 20.2142 8.16638 19.4016 8.16638 18.3991V10.231C8.16638 9.22856 8.97904 8.4159 9.98151 8.4159Z" stroke="#ED1C24" stroke-width="1.5" stroke-linecap="round" stroke-linejoin="round"/>
</svg>