<svg xmlns="http://www.w3.org/2000/svg" width="14" height="23" viewBox="0 0 14 23" fill="none">
  <path d="M2.33268 2.83333C1.96455 2.83333 1.66602 2.53485 1.66602 2.16667C1.66602 1.79848 1.96455 1.5 2.33268 1.5C2.70082 1.5 2.99935 1.79848 2.99935 2.16667C2.99935 2.53485 2.70082 2.83333 2.33268 2.83333Z" fill="#2A2C33"/>
  <path d="M11.666 2.83333C11.2979 2.83333 10.9993 2.53485 10.9993 2.16667C10.9993 1.79848 11.2979 1.5 11.666 1.5C12.0341 1.5 12.3327 1.79848 12.3327 2.16667C12.3327 2.53485 12.0341 2.83333 11.666 2.83333Z" fill="#2A2C33"/>
  <path d="M2.33268 12.1667C1.96455 12.1667 1.66602 11.8682 1.66602 11.5C1.66602 11.1318 1.96455 10.8333 2.33268 10.8333C2.70082 10.8333 2.99935 11.1318 2.99935 11.5C2.99935 11.8682 2.70082 12.1667 2.33268 12.1667Z" fill="#2A2C33"/>
  <path d="M11.666 12.1667C11.2979 12.1667 10.9993 11.8682 10.9993 11.5C10.9993 11.1318 11.2979 10.8333 11.666 10.8333C12.0341 10.8333 12.3327 11.1318 12.3327 11.5C12.3327 11.8682 12.0341 12.1667 11.666 12.1667Z" fill="#2A2C33"/>
  <path d="M2.33268 21.5C1.96455 21.5 1.66602 21.2015 1.66602 20.8333C1.66602 20.4652 1.96455 20.1667 2.33268 20.1667C2.70082 20.1667 2.99935 20.4652 2.99935 20.8333C2.99935 21.2015 2.70082 21.5 2.33268 21.5Z" fill="#2A2C33"/>
  <path d="M11.666 21.5C11.2979 21.5 10.9993 21.2015 10.9993 20.8333C10.9993 20.4652 11.2979 20.1667 11.666 20.1667C12.0341 20.1667 12.3327 20.4652 12.3327 20.8333C12.3327 21.2015 12.0341 21.5 11.666 21.5Z" fill="#2A2C33"/>
  <path d="M2.33268 2.83333C1.96455 2.83333 1.66602 2.53485 1.66602 2.16667C1.66602 1.79848 1.96455 1.5 2.33268 1.5C2.70082 1.5 2.99935 1.79848 2.99935 2.16667C2.99935 2.53485 2.70082 2.83333 2.33268 2.83333Z" stroke="#2A2C33" stroke-width="1.5" stroke-linecap="round" stroke-linejoin="round"/>
  <path d="M11.666 2.83333C11.2979 2.83333 10.9993 2.53485 10.9993 2.16667C10.9993 1.79848 11.2979 1.5 11.666 1.5C12.0341 1.5 12.3327 1.79848 12.3327 2.16667C12.3327 2.53485 12.0341 2.83333 11.666 2.83333Z" stroke="#2A2C33" stroke-width="1.5" stroke-linecap="round" stroke-linejoin="round"/>
  <path d="M2.33268 12.1667C1.96455 12.1667 1.66602 11.8682 1.66602 11.5C1.66602 11.1318 1.96455 10.8333 2.33268 10.8333C2.70082 10.8333 2.99935 11.1318 2.99935 11.5C2.99935 11.8682 2.70082 12.1667 2.33268 12.1667Z" stroke="#2A2C33" stroke-width="1.5" stroke-linecap="round" stroke-linejoin="round"/>
  <path d="M11.666 12.1667C11.2979 12.1667 10.9993 11.8682 10.9993 11.5C10.9993 11.1318 11.2979 10.8333 11.666 10.8333C12.0341 10.8333 12.3327 11.1318 12.3327 11.5C12.3327 11.8682 12.0341 12.1667 11.666 12.1667Z" stroke="#2A2C33" stroke-width="1.5" stroke-linecap="round" stroke-linejoin="round"/>
  <path d="M2.33268 21.5C1.96455 21.5 1.66602 21.2015 1.66602 20.8333C1.66602 20.4652 1.96455 20.1667 2.33268 20.1667C2.70082 20.1667 2.99935 20.4652 2.99935 20.8333C2.99935 21.2015 2.70082 21.5 2.33268 21.5Z" stroke="#2A2C33" stroke-width="1.5" stroke-linecap="round" stroke-linejoin="round"/>
  <path d="M11.666 21.5C11.2979 21.5 10.9993 21.2015 10.9993 20.8333C10.9993 20.4652 11.2979 20.1667 11.666 20.1667C12.0341 20.1667 12.3327 20.4652 12.3327 20.8333C12.3327 21.2015 12.0341 21.5 11.666 21.5Z" stroke="#2A2C33" stroke-width="1.5" stroke-linecap="round" stroke-linejoin="round"/>
</svg>