<svg width="16" height="16" viewBox="0 0 16 16" fill="none" xmlns="http://www.w3.org/2000/svg">
<g id="add">
<path id="Vector" d="M5.82813 7.78847L5.82811 7.7883C5.81402 7.65212 5.80619 7.51436 5.80619 7.375C5.80619 7.12607 5.82968 6.8834 5.87351 6.64701L5.87352 6.64695C5.88377 6.59422 5.8559 6.54 5.80768 6.51807C5.80767 6.51806 5.80766 6.51806 5.80765 6.51805L5.81088 6.51094C5.59838 6.41563 5.40307 6.28438 5.23432 6.11875L5.82813 7.78847ZM5.82813 7.78847C5.83543 7.84691 5.79746 7.90123 5.74165 7.91746C5.12626 8.0725 4.56256 8.39196 4.10224 8.85228C3.45552 9.49744 3.08751 10.3478 3.05776 11.256L3.05776 11.2561C3.0563 11.3189 3.00366 11.3687 2.94057 11.3687H2.064C2.04836 11.3688 2.03288 11.3656 2.01847 11.3596C2.00406 11.3535 1.99101 11.3446 1.98008 11.3334C1.96916 11.3222 1.96059 11.3089 1.95488 11.2944C1.94917 11.2798 1.94642 11.2643 1.94681 11.2486C1.97801 10.046 2.46157 8.91974 3.3164 8.06647L3.3164 8.06646C3.71262 7.67024 4.16967 7.35358 4.66572 7.12428L4.66244 7.11719M5.82813 7.78847L4.66244 7.11719M4.66244 7.11719L4.65916 7.1101L4.65501 7.10111L4.66731 7.11108C3.96128 6.53906 3.51088 5.66627 3.51088 4.6875C3.51088 2.96062 4.95105 1.54382 6.67794 1.57031C7.87494 1.58902 8.90986 2.28103 9.41641 3.28321L9.42338 3.27969C9.46244 3.35781 9.41244 3.45156 9.32494 3.46094M4.66244 7.11719L9.41639 3.28318C9.45306 3.35651 9.4061 3.44437 9.32413 3.45317M9.32494 3.46094L9.32413 3.45317M9.32494 3.46094L9.32411 3.45317C9.32412 3.45317 9.32412 3.45317 9.32413 3.45317M9.32494 3.46094L9.32413 3.45317M9.32413 3.45317C9.02506 3.48448 8.73385 3.55181 8.45832 3.64731L8.45828 3.64732C8.40856 3.66487 8.35141 3.64584 8.32213 3.60045L8.32212 3.60044C8.23272 3.46242 8.12607 3.3338 8.00216 3.21774L8.00215 3.21773C7.63666 2.87577 7.15354 2.68284 6.65315 2.67813C6.65315 2.67813 6.65314 2.67813 6.65314 2.67813L9.32413 3.45317ZM7.74994 7.35469C7.75463 6.84219 7.95932 6.34688 8.31713 5.97969C8.69213 5.59531 9.19369 5.38125 9.72963 5.375C10.2593 5.37031 10.7734 5.57656 11.1515 5.94688C11.539 6.32656 11.7515 6.83438 11.7515 7.375C11.7499 7.90938 11.5421 8.41094 11.164 8.78906C10.7859 9.16719 10.2843 9.375 9.74994 9.375C9.21557 9.375 8.714 9.16719 8.33588 8.78906M7.74994 7.35469L7.74213 7.35459M7.74994 7.35469L7.74213 7.35462C7.74213 7.35461 7.74213 7.3546 7.74213 7.35459M7.74994 7.35469C7.74664 7.62082 7.7968 7.88491 7.89745 8.13129L8.33588 8.78906M7.74213 7.35459C7.74684 6.84008 7.95233 6.34285 8.31153 5.97424L8.31154 5.97423C8.68799 5.58837 9.19153 5.37346 9.72954 5.36719L9.72956 5.36719C10.2613 5.36248 10.7774 5.56953 11.157 5.9413C11.546 6.32246 11.7593 6.83228 11.7593 7.375V7.37502C11.7577 7.91146 11.5491 8.415 11.1695 8.79459C10.7899 9.17418 10.2864 9.38281 9.74994 9.38281C9.2135 9.38281 8.70996 9.17418 8.33037 8.7946M7.74213 7.35459C7.73882 7.62177 7.78917 7.88689 7.89022 8.13425C7.99126 8.38161 8.14094 8.60616 8.33037 8.7946M8.33037 8.7946L8.33588 8.78906M8.33037 8.7946C8.33036 8.7946 8.33036 8.79459 8.33035 8.79459L8.33588 8.78906M4.62182 4.62791L4.62963 4.62813L4.62182 4.62791ZM7.78432 9.80469L7.78103 9.7976L7.77684 9.78855L7.78924 9.79862C7.08473 9.2266 6.63275 8.35379 6.63275 7.375C6.63275 5.64811 8.07137 4.23132 9.79826 4.25781C11.4971 4.28431 12.8671 5.6699 12.8671 7.375C12.8671 9.09725 11.4706 10.4922 9.74994 10.4922C8.79475 10.4922 7.89901 10.8633 7.22411 11.5382C6.57739 12.1834 6.20939 13.0337 6.17963 13.9419L6.17963 13.942C6.17817 14.0048 6.12554 14.0547 6.06244 14.0547H5.18744C5.1718 14.0547 5.15632 14.0516 5.14191 14.0455C5.12749 14.0394 5.11444 14.0305 5.10352 14.0193C5.0926 14.0081 5.08403 13.9949 5.07832 13.9803C5.0726 13.9658 5.06986 13.9502 5.07025 13.9346C5.10145 12.7335 5.585 11.6072 6.43984 10.754L6.43984 10.754C6.83017 10.3631 7.28642 10.0441 7.7876 9.81178L7.78432 9.80469ZM12.6874 12.0625V12.0703H13.9374C14.0019 12.0703 14.0546 12.1231 14.0546 12.1875V12.9375C14.0546 13.0019 14.0019 13.0547 13.9374 13.0547H12.6874V13.0625H12.6796V14.3125C12.6796 14.3769 12.6269 14.4297 12.5624 14.4297H11.8124C11.748 14.4297 11.6953 14.3769 11.6953 14.3125V13.0625H11.6874V13.0547H10.4374C10.373 13.0547 10.3203 13.0019 10.3203 12.9375V12.1875C10.3203 12.1231 10.373 12.0703 10.4374 12.0703H11.6874V12.0625H11.6953V10.8125C11.6953 10.7481 11.748 10.6953 11.8124 10.6953H12.5624C12.6269 10.6953 12.6796 10.7481 12.6796 10.8125V12.0625H12.6874ZM5.19123 3.28517C4.83829 3.64595 4.63594 4.12438 4.62182 4.62789L5.19123 3.28517Z" fill="white" stroke="white" stroke-width="0.015625"/>
</g>
</svg>
