<svg xmlns="http://www.w3.org/2000/svg" width="21" height="20" viewBox="0 0 21 20" fill="none">
<path d="M9.21812 5.62408C8.80545 5.65975 8.49983 6.02321 8.5355 6.43588C8.57117 6.84856 8.93463 7.15418 9.34731 7.11851L9.21812 5.62408ZM14.8588 5.88928L15.606 5.82469C15.5889 5.62652 15.4937 5.44327 15.3415 5.31525C15.1892 5.18723 14.9924 5.12494 14.7942 5.14207L14.8588 5.88928ZM14.5936 11.53C14.6293 11.9426 14.9927 12.2483 15.4054 12.2126C15.8181 12.1769 16.1237 11.8134 16.088 11.4008L14.5936 11.53ZM15.0791 6.79267C15.3457 6.47564 15.3048 6.00253 14.9877 5.73595C14.6707 5.46937 14.1976 5.51027 13.931 5.8273L15.0791 6.79267ZM8.76619 11.9695C8.4996 12.2866 8.5405 12.7597 8.85753 13.0262C9.17456 13.2928 9.64767 13.2519 9.91425 12.9349L8.76619 11.9695ZM8.35426 1.69434H15.4127V0.194336H8.35426V1.69434ZM19.1445 5.42613V12.4846H20.6445V5.42613H19.1445ZM15.4127 16.2164H8.35427V17.7164H15.4127V16.2164ZM4.62247 12.4846V5.42613H3.12247V12.4846H4.62247ZM8.35427 16.2164C6.29325 16.2164 4.62247 14.5456 4.62247 12.4846H3.12247C3.12247 15.374 5.46483 17.7164 8.35427 17.7164V16.2164ZM19.1445 12.4846C19.1445 14.5456 17.4737 16.2164 15.4127 16.2164V17.7164C18.3021 17.7164 20.6445 15.374 20.6445 12.4846H19.1445ZM15.4127 1.69434C17.4737 1.69434 19.1445 3.36512 19.1445 5.42613H20.6445C20.6445 2.53669 18.3021 0.194336 15.4127 0.194336V1.69434ZM8.35426 0.194336C5.46482 0.194336 3.12247 2.53669 3.12247 5.42613H4.62247C4.62247 3.36512 6.29325 1.69434 8.35426 1.69434V0.194336ZM9.34731 7.11851L14.9234 6.6365L14.7942 5.14207L9.21812 5.62408L9.34731 7.11851ZM14.1116 5.95387L14.5936 11.53L16.088 11.4008L15.606 5.82469L14.1116 5.95387ZM13.931 5.8273L8.76619 11.9695L9.91425 12.9349L15.0791 6.79267L13.931 5.8273ZM0.414062 7.02907V14.4625H1.91406V7.02907H0.414062ZM5.64585 19.6943H13.2649V18.1943H5.64585V19.6943ZM13.2649 19.6943C14.9167 19.6943 16.2558 18.3553 16.2558 16.7034H14.7558C14.7558 17.5268 14.0883 18.1943 13.2649 18.1943V19.6943ZM0.414062 14.4625C0.414062 17.352 2.75642 19.6943 5.64585 19.6943V18.1943C3.58484 18.1943 1.91406 16.5236 1.91406 14.4625H0.414062ZM4.48689 2.95624C2.23753 2.95624 0.414062 4.77971 0.414062 7.02907H1.91406C1.91406 5.60814 3.06596 4.45624 4.48689 4.45624V2.95624Z" fill="black"/>
</svg>