<svg width="24" height="25" viewBox="0 0 24 25" fill="none" xmlns="http://www.w3.org/2000/svg">
<circle cx="12" cy="12.5" r="11.5" fill="#FFE7E6" stroke="#ED1C24"/>
<path d="M16 9.83331C16 8.77245 15.5786 7.75503 14.8284 7.00489C14.0783 6.25474 13.0609 5.83331 12 5.83331C10.9391 5.83331 9.92172 6.25474 9.17157 7.00489C8.42143 7.75503 8 8.77245 8 9.83331C8 14.5 6 15.8333 6 15.8333H18C18 15.8333 16 14.5 16 9.83331Z" fill="#ED1C24"/>
<path d="M13.1533 18.5C13.0361 18.702 12.8679 18.8697 12.6655 18.9863C12.4631 19.1029 12.2336 19.1643 12 19.1643C11.7664 19.1643 11.5369 19.1029 11.3345 18.9863C11.1321 18.8697 10.9639 18.702 10.8467 18.5" fill="#ED1C24"/>
<path d="M13.1533 18.5C13.0361 18.702 12.8679 18.8697 12.6655 18.9863C12.4631 19.1029 12.2336 19.1643 12 19.1643C11.7664 19.1643 11.5369 19.1029 11.3345 18.9863C11.1321 18.8697 10.9639 18.702 10.8467 18.5M16 9.83331C16 8.77245 15.5786 7.75503 14.8284 7.00489C14.0783 6.25474 13.0609 5.83331 12 5.83331C10.9391 5.83331 9.92172 6.25474 9.17157 7.00489C8.42143 7.75503 8 8.77245 8 9.83331C8 14.5 6 15.8333 6 15.8333H18C18 15.8333 16 14.5 16 9.83331Z" stroke="#ED1C24" stroke-linecap="round" stroke-linejoin="round"/>
</svg>
