<svg xmlns="http://www.w3.org/2000/svg" width="20" height="20" viewBox="0 0 20 20" fill="none">
    <path
        d="M10.1117 0.666504L10.5103 1.41184C10.7797 1.91517 10.9143 2.16717 10.825 2.27517C10.7363 2.38317 10.443 2.29584 9.85566 2.12184C9.25335 1.94356 8.62847 1.85307 8.00033 1.85317C4.50233 1.85317 1.667 4.60517 1.667 7.99984C1.66593 9.08202 1.95855 10.1442 2.51366 11.0732M5.88966 15.3332L5.491 14.5878C5.22166 14.0838 5.087 13.8318 5.17633 13.7245C5.265 13.6165 5.55833 13.7032 6.14566 13.8778C6.73233 14.0518 7.35566 14.1458 8.001 14.1458C11.499 14.1458 14.3343 11.3938 14.3343 7.99917C14.3353 6.91721 14.0427 5.85527 13.4877 4.9265"
        stroke="#0F0F0F" stroke-width="1.5" stroke-linecap="round" stroke-linejoin="round" />
</svg>