<svg xmlns="http://www.w3.org/2000/svg" width="21" height="21" viewBox="0 0 21 21" fill="none">
  <g clip-path="url(#clip0_2172_31585)">
    <path d="M7.62866 11.9825L13.7757 15.5645M13.7667 5.68254L7.62866 9.26453M18.7977 4.32354C18.7977 5.8147 17.5888 7.02354 16.0977 7.02354C14.6065 7.02354 13.3977 5.8147 13.3977 4.32354C13.3977 2.83237 14.6065 1.62354 16.0977 1.62354C17.5888 1.62354 18.7977 2.83237 18.7977 4.32354ZM7.99766 10.6235C7.99766 12.1147 6.78883 13.3235 5.29766 13.3235C3.80649 13.3235 2.59766 12.1147 2.59766 10.6235C2.59766 9.13237 3.80649 7.92354 5.29766 7.92354C6.78883 7.92354 7.99766 9.13237 7.99766 10.6235ZM18.7977 16.9235C18.7977 18.4147 17.5888 19.6235 16.0977 19.6235C14.6065 19.6235 13.3977 18.4147 13.3977 16.9235C13.3977 15.4324 14.6065 14.2235 16.0977 14.2235C17.5888 14.2235 18.7977 15.4324 18.7977 16.9235Z" stroke="#191717" stroke-width="1.5" stroke-linecap="round" stroke-linejoin="round"/>
  </g>
  <defs>
    <clipPath id="clip0_2172_31585">
      <rect width="20" height="20" fill="white" transform="translate(0.714844 0.944336)"/>
    </clipPath>
  </defs>
</svg>