<svg width="121" height="121" viewBox="0 0 121 121" fill="none" xmlns="http://www.w3.org/2000/svg">
<g id="teenyicons:tick-circle-outline">
<path id="Vector" d="M32.5 60.5L56.5 80.5L88.5 40.5M60.5 116.5C53.146 116.5 45.864 115.052 39.0697 112.237C32.2755 109.423 26.1021 105.298 20.902 100.098C15.7019 94.8979 11.577 88.7245 8.76275 81.9303C5.94848 75.136 4.5 67.854 4.5 60.5C4.5 53.146 5.94848 45.864 8.76275 39.0697C11.577 32.2755 15.7019 26.1021 20.902 20.902C26.1021 15.7019 32.2755 11.577 39.0697 8.76275C45.864 5.94848 53.146 4.5 60.5 4.5C75.3521 4.5 89.5959 10.4 100.098 20.902C110.6 31.4041 116.5 45.6479 116.5 60.5C116.5 75.3521 110.6 89.5959 100.098 100.098C89.5959 110.6 75.3521 116.5 60.5 116.5Z" stroke="#0AC433" stroke-width="6"/>
</g>
</svg>
