<svg xmlns="http://www.w3.org/2000/svg" width="30" height="30" viewBox="0 0 30 30" fill="none">
  <path d="M15 0.000732422C6.7166 0.000732422 0 6.71601 0 15.0001C0 23.2841 6.71594 29.9994 15 29.9994C23.2847 29.9994 30 23.2841 30 15.0001C30 6.71601 23.2847 0.000732422 15 0.000732422ZM15 4.48571C17.7409 4.48571 19.962 6.70744 19.962 9.44706C19.962 12.1873 17.7409 14.4084 15 14.4084C12.2604 14.4084 10.0393 12.1873 10.0393 9.44706C10.0393 6.70744 12.2604 4.48571 15 4.48571ZM14.9967 26.0778C12.263 26.0778 9.75929 25.0822 7.82812 23.4344C7.35768 23.0331 7.08623 22.4447 7.08623 21.8274C7.08623 19.0489 9.33497 16.8252 12.1141 16.8252H17.8872C20.667 16.8252 22.9072 19.0489 22.9072 21.8274C22.9072 22.4454 22.637 23.0324 22.1659 23.4337C20.2354 25.0822 17.731 26.0778 14.9967 26.0778Z" fill="white"/>
</svg>