<svg xmlns="http://www.w3.org/2000/svg" width="16" height="16" viewBox="0 0 16 16" fill="none">
  <g clip-path="url(#clip0_6853_8771)">
    <path d="M10 6.66675L13.0353 5.14941C13.1369 5.09864 13.2499 5.07467 13.3633 5.07978C13.4768 5.08489 13.5871 5.11891 13.6837 5.17862C13.7804 5.23832 13.8602 5.32173 13.9155 5.42093C13.9709 5.52012 13.9999 5.63182 14 5.74541V10.2547C13.9999 10.3683 13.9709 10.48 13.9155 10.5792C13.8602 10.6784 13.7804 10.7618 13.6837 10.8215C13.5871 10.8812 13.4768 10.9153 13.3633 10.9204C13.2499 10.9255 13.1369 10.9015 13.0353 10.8507L10 9.33341V6.66675Z" stroke="#0F0F0F" stroke-linecap="round" stroke-linejoin="round"/>
    <path d="M8.66667 4H3.33333C2.59695 4 2 4.59695 2 5.33333V10.6667C2 11.403 2.59695 12 3.33333 12H8.66667C9.40305 12 10 11.403 10 10.6667V5.33333C10 4.59695 9.40305 4 8.66667 4Z" stroke="#0F0F0F" stroke-linecap="round" stroke-linejoin="round"/>
  </g>
  <defs>
    <clipPath id="clip0_6853_8771">
      <rect width="16" height="16" fill="white"/>
    </clipPath>
  </defs>
</svg>