<svg xmlns="http://www.w3.org/2000/svg" width="100" height="101" viewBox="0 0 100 101" fill="none">
  <g clip-path="url(#clip0_6634_21343)">
    <path d="M50 63V63.0417M50 38V46.3333V38Z" stroke="#FF4C4C" stroke-width="6" stroke-linecap="round" stroke-linejoin="round"/>
    <path d="M20.8333 79.6666H79.1666C80.5263 79.6571 81.8629 79.315 83.0599 78.6703C84.257 78.0255 85.2781 77.0977 86.0342 75.9676C86.7903 74.8376 87.2584 73.5397 87.3977 72.1873C87.537 70.8348 87.3432 69.4687 86.8333 68.2083L57.25 17.1667C56.5293 15.8641 55.4729 14.7784 54.1906 14.0224C52.9083 13.2664 51.4469 12.8677 49.9583 12.8677C48.4697 12.8677 47.0083 13.2664 45.726 14.0224C44.4437 14.7784 43.3873 15.8641 42.6666 17.1667L13.0833 68.2083C12.5831 69.4399 12.3847 70.7732 12.5048 72.0971C12.6248 73.4209 13.0599 74.6969 13.7735 75.8183C14.4872 76.9398 15.4588 77.8743 16.6072 78.5437C17.7556 79.2132 19.0475 79.5982 20.375 79.6666" stroke="#FF4C4C" stroke-width="6" stroke-linecap="round" stroke-linejoin="round"/>
  </g>
  <defs>
    <clipPath id="clip0_6634_21343">
      <rect width="100" height="100" fill="white" transform="translate(0 0.5)"/>
    </clipPath>
  </defs>
</svg>